<svg width="25" height="25" viewBox="0 0 25 25" fill="none" xmlns="http://www.w3.org/2000/svg">
<path id="Vector" d="M0 23.2143C0 22.7407 0.109747 22.2865 0.305097 21.9516C0.500448 21.6167 0.765399 21.4286 1.04167 21.4286H7.29167C7.56793 21.4286 7.83289 21.6167 8.02824 21.9516C8.22359 22.2865 8.33333 22.7407 8.33333 23.2143C8.33333 23.6879 8.22359 24.1421 8.02824 24.477C7.83289 24.8119 7.56793 25 7.29167 25H1.04167C0.765399 25 0.500448 24.8119 0.305097 24.477C0.109747 24.1421 0 23.6879 0 23.2143ZM0 12.5C0 12.0264 0.109747 11.5722 0.305097 11.2373C0.500448 10.9024 0.765399 10.7143 1.04167 10.7143H15.625C15.9013 10.7143 16.1662 10.9024 16.3616 11.2373C16.5569 11.5722 16.6667 12.0264 16.6667 12.5C16.6667 12.9736 16.5569 13.4278 16.3616 13.7627C16.1662 14.0976 15.9013 14.2857 15.625 14.2857H1.04167C0.765399 14.2857 0.500448 14.0976 0.305097 13.7627C0.109747 13.4278 0 12.9736 0 12.5ZM0 1.78571C0 1.31211 0.109747 0.85791 0.305097 0.523024C0.500448 0.188138 0.765399 0 1.04167 0H23.9583C24.2346 0 24.4996 0.188138 24.6949 0.523024C24.8903 0.85791 25 1.31211 25 1.78571C25 2.25932 24.8903 2.71352 24.6949 3.0484C24.4996 3.38329 24.2346 3.57143 23.9583 3.57143H1.04167C0.765399 3.57143 0.500448 3.38329 0.305097 3.0484C0.109747 2.71352 0 2.25932 0 1.78571Z" fill="black"/>
</svg>
