<svg width="35" height="35" viewBox="0 0 35 35" fill="none" xmlns="http://www.w3.org/2000/svg">
<g id="bagIcon">
<path id="Vector" fill-rule="evenodd" clip-rule="evenodd" d="M17.5 16.4062C17.8315 16.4062 18.1495 16.5215 18.3839 16.7266C18.6183 16.9317 18.75 17.2099 18.75 17.5V20.7812H22.5C22.8315 20.7812 23.1495 20.8965 23.3839 21.1016C23.6183 21.3067 23.75 21.5849 23.75 21.875C23.75 22.1651 23.6183 22.4433 23.3839 22.6484C23.1495 22.8535 22.8315 22.9688 22.5 22.9688H18.75V26.25C18.75 26.5401 18.6183 26.8183 18.3839 27.0234C18.1495 27.2285 17.8315 27.3438 17.5 27.3438C17.1685 27.3438 16.8505 27.2285 16.6161 27.0234C16.3817 26.8183 16.25 26.5401 16.25 26.25V22.9688H12.5C12.1685 22.9688 11.8505 22.8535 11.6161 22.6484C11.3817 22.4433 11.25 22.1651 11.25 21.875C11.25 21.5849 11.3817 21.3067 11.6161 21.1016C11.8505 20.8965 12.1685 20.7812 12.5 20.7812H16.25V17.5C16.25 17.2099 16.3817 16.9317 16.6161 16.7266C16.8505 16.5215 17.1685 16.4062 17.5 16.4062Z" fill="black"/>
<path id="Vector_2" d="M17.5 2.1875C19.1576 2.1875 20.7473 2.76367 21.9194 3.78926C23.0915 4.81485 23.75 6.20585 23.75 7.65625V8.75H11.25V7.65625C11.25 6.20585 11.9085 4.81485 13.0806 3.78926C14.2527 2.76367 15.8424 2.1875 17.5 2.1875ZM26.25 8.75V7.65625C26.25 5.62569 25.3281 3.67829 23.6872 2.24246C22.0462 0.806638 19.8206 0 17.5 0C15.1794 0 12.9538 0.806638 11.3128 2.24246C9.67187 3.67829 8.75 5.62569 8.75 7.65625V8.75H0V30.625C0 31.7853 0.526784 32.8981 1.46447 33.7186C2.40215 34.5391 3.67392 35 5 35H30C31.3261 35 32.5979 34.5391 33.5355 33.7186C34.4732 32.8981 35 31.7853 35 30.625V8.75H26.25ZM2.5 10.9375H32.5V30.625C32.5 31.2052 32.2366 31.7616 31.7678 32.1718C31.2989 32.582 30.663 32.8125 30 32.8125H5C4.33696 32.8125 3.70107 32.582 3.23223 32.1718C2.76339 31.7616 2.5 31.2052 2.5 30.625V10.9375Z" fill="black"/>
</g>
</svg>
