<svg width="35" height="31" viewBox="0 0 35 31" fill="none" xmlns="http://www.w3.org/2000/svg">
<g id="print">
<path id="Vector" d="M5.46875 15.3125C5.75883 15.3125 6.03703 15.1973 6.24215 14.9921C6.44727 14.787 6.5625 14.5088 6.5625 14.2188C6.5625 13.9287 6.44727 13.6505 6.24215 13.4454C6.03703 13.2402 5.75883 13.125 5.46875 13.125C5.17867 13.125 4.90047 13.2402 4.69535 13.4454C4.49023 13.6505 4.375 13.9287 4.375 14.2188C4.375 14.5088 4.49023 14.787 4.69535 14.9921C4.90047 15.1973 5.17867 15.3125 5.46875 15.3125Z" fill="black"/>
<path id="Vector_2" d="M10.9375 0C9.77718 0 8.66438 0.460936 7.84391 1.28141C7.02344 2.10188 6.5625 3.21468 6.5625 4.375V8.75H4.375C3.21468 8.75 2.10188 9.21094 1.28141 10.0314C0.460936 10.8519 0 11.9647 0 13.125L0 19.6875C0 20.8478 0.460936 21.9606 1.28141 22.7811C2.10188 23.6016 3.21468 24.0625 4.375 24.0625H6.5625V26.25C6.5625 27.4103 7.02344 28.5231 7.84391 29.3436C8.66438 30.1641 9.77718 30.625 10.9375 30.625H24.0625C25.2228 30.625 26.3356 30.1641 27.1561 29.3436C27.9766 28.5231 28.4375 27.4103 28.4375 26.25V24.0625H30.625C31.7853 24.0625 32.8981 23.6016 33.7186 22.7811C34.5391 21.9606 35 20.8478 35 19.6875V13.125C35 11.9647 34.5391 10.8519 33.7186 10.0314C32.8981 9.21094 31.7853 8.75 30.625 8.75H28.4375V4.375C28.4375 3.21468 27.9766 2.10188 27.1561 1.28141C26.3356 0.460936 25.2228 0 24.0625 0H10.9375ZM8.75 4.375C8.75 3.79484 8.98047 3.23844 9.3907 2.8282C9.80094 2.41797 10.3573 2.1875 10.9375 2.1875H24.0625C24.6427 2.1875 25.1991 2.41797 25.6093 2.8282C26.0195 3.23844 26.25 3.79484 26.25 4.375V8.75H8.75V4.375ZM10.9375 15.3125C9.77718 15.3125 8.66438 15.7734 7.84391 16.5939C7.02344 17.4144 6.5625 18.5272 6.5625 19.6875V21.875H4.375C3.79484 21.875 3.23844 21.6445 2.8282 21.2343C2.41797 20.8241 2.1875 20.2677 2.1875 19.6875V13.125C2.1875 12.5448 2.41797 11.9884 2.8282 11.5782C3.23844 11.168 3.79484 10.9375 4.375 10.9375H30.625C31.2052 10.9375 31.7616 11.168 32.1718 11.5782C32.582 11.9884 32.8125 12.5448 32.8125 13.125V19.6875C32.8125 20.2677 32.582 20.8241 32.1718 21.2343C31.7616 21.6445 31.2052 21.875 30.625 21.875H28.4375V19.6875C28.4375 18.5272 27.9766 17.4144 27.1561 16.5939C26.3356 15.7734 25.2228 15.3125 24.0625 15.3125H10.9375ZM26.25 19.6875V26.25C26.25 26.8302 26.0195 27.3866 25.6093 27.7968C25.1991 28.207 24.6427 28.4375 24.0625 28.4375H10.9375C10.3573 28.4375 9.80094 28.207 9.3907 27.7968C8.98047 27.3866 8.75 26.8302 8.75 26.25V19.6875C8.75 19.1073 8.98047 18.5509 9.3907 18.1407C9.80094 17.7305 10.3573 17.5 10.9375 17.5H24.0625C24.6427 17.5 25.1991 17.7305 25.6093 18.1407C26.0195 18.5509 26.25 19.1073 26.25 19.6875Z" fill="black"/>
</g>
</svg>
